<svg width="101" height="46" viewBox="0 0 101 46" fill="none" xmlns="http://www.w3.org/2000/svg">
<path d="M4.0768 13.598C5.94016 13.598 7.45072 12.0822 7.45072 10.2124C7.45072 8.34253 5.94016 6.82672 4.0768 6.82672C2.21344 6.82672 0.702881 8.34253 0.702881 10.2124C0.702881 12.0822 2.21344 13.598 4.0768 13.598Z" fill="url(#paint0_linear_10_1344)"/>
<path d="M6.88054 15.2818H0.954346V36.3739H6.88054V15.2818Z" fill="url(#paint1_linear_10_1344)"/>
<path d="M45.9427 15.3512H28.2341V19.219H33.7903V36.4318H39.8434V19.219H45.9427V15.3512Z" fill="url(#paint2_linear_10_1344)"/>
<path d="M61.4368 26.9546H64.0731C64.837 26.9546 65.4568 26.3327 65.4568 25.5661V16.7637C65.4568 15.9971 64.837 15.3752 64.0731 15.3752H63.5218H61.3197H53.269V15.3521H47.7136V15.3752V19.2778V36.4327H53.269V19.2769H59.936V24.2016H55.4916L60.5261 36.4318H66.6023L61.4368 26.9546Z" fill="url(#paint3_linear_10_1344)"/>
<path d="M89.3808 0.0438192C80.955 0.787275 79.4733 10.4506 79.4733 10.4506C62.621 16.49 66.7877 31.3566 67.6217 33.9583C68.4549 36.56 72.807 42.4134 81.1404 42.8781C89.4739 43.3429 94.1038 39.8117 94.1038 39.8117L92.5297 36.56C87.8998 39.2543 81.0481 41.2986 74.011 36.3739C66.9739 31.4493 70.3998 20.2999 75.2151 16.6761C80.0304 13.0522 86.3266 12.1235 92.9005 16.0261C99.4745 19.9286 96.0487 29.5919 92.6228 31.5427C89.197 33.4936 89.2893 30.3171 89.2893 30.3171L92.0674 19.2777L88.2707 19.3704C87.7152 20.6712 86.4189 20.1138 86.4189 20.1138C79.3826 16.0252 74.9374 23.5516 74.5673 27.3615C74.1973 31.1714 75.3082 34.5157 80.0304 34.8878C84.7525 35.2592 84.938 32.4722 84.938 32.4722L85.7711 32.7509C85.4934 34.0518 86.9752 34.7018 86.9752 34.7018C90.3087 35.7239 92.5305 34.7944 92.5305 34.7944C104.938 30.5206 98.7344 17.2855 98.7344 17.2855C104.751 8.13914 97.8065 -0.699637 89.3808 0.0438192ZM85.6467 28.3696C84.6306 31.0159 82.3412 32.5946 80.5339 31.8958C78.7258 31.197 78.0846 28.4845 79.1008 25.8382C80.1169 23.1918 82.4063 21.6131 84.2136 22.3119C86.0208 23.0116 86.6628 25.7232 85.6467 28.3696ZM96.881 14.3531C96.881 14.3531 92.5289 8.81147 83.1768 10.2645C83.1768 10.2645 85.6772 0.508583 93.9175 4.03897C93.9175 4.03897 100.585 6.82672 96.881 14.3531Z" fill="url(#paint4_linear_10_1344)"/>
<path d="M14.3798 15.2818H8.36133V19.2769V36.3739H14.3798V19.2769H20.4914V36.3739H26.6022V19.2769V15.3752V15.2818H14.3798Z" fill="url(#paint5_linear_10_1344)"/>
<path d="M0 38.6299H66.2587" stroke="#0B3A5D" stroke-width="0.792" stroke-miterlimit="10"/>
<path d="M0.554632 43.9152C0.8167 44.0822 1.18673 44.2013 1.59466 44.2013C2.14599 44.2013 2.6553 43.9011 2.6553 43.3553C2.6553 43.0229 2.44432 42.7764 1.93585 42.5159C1.31117 42.21 0.961744 41.851 0.961744 41.364C0.961744 40.5651 1.71828 40.0449 2.61904 40.0449C3.09125 40.0449 3.44727 40.1781 3.62198 40.2847L3.40359 40.7313C3.25113 40.6503 2.94621 40.518 2.55393 40.5246C1.94986 40.5246 1.58725 40.8918 1.58725 41.2573C1.58725 41.6228 1.83448 41.8295 2.34378 42.0892C2.94703 42.3828 3.2808 42.7351 3.2808 43.2892C3.2808 44.0682 2.61162 44.6744 1.51472 44.6744C1.02026 44.6744 0.540622 44.5272 0.337891 44.3676L0.554632 43.9152Z" fill="#154555"/>
<path d="M6.61428 44.4213C6.35221 44.561 5.92367 44.6752 5.45146 44.6752C4.52103 44.6752 4.11475 44.0955 4.11475 43.3826C4.11475 42.4101 4.8993 41.311 6.03328 41.311C6.70164 41.311 7.06507 41.6774 7.06507 42.1372C7.06507 42.9832 6.02504 43.2089 4.72541 43.1891C4.69657 43.3288 4.718 43.629 4.79794 43.8019C4.93556 44.0888 5.21906 44.2352 5.58249 44.2352C5.9962 44.2352 6.30853 44.1153 6.52692 44.0086L6.61428 44.4213ZM5.9451 41.7443C5.37152 41.7443 4.94216 42.2562 4.79711 42.7624C5.74072 42.769 6.48242 42.6557 6.48242 42.1562C6.48325 41.8907 6.26486 41.7443 5.9451 41.7443Z" fill="#154555"/>
<path d="M7.5712 45.3401C7.78217 45.46 8.13077 45.5534 8.50162 45.5534C9.09004 45.5534 9.55484 45.2739 9.76581 44.4014L9.88201 43.9218H9.86058C9.55484 44.3808 9.1263 44.6074 8.63925 44.6074C7.93463 44.6074 7.5712 44.0607 7.5712 43.4884C7.56378 42.396 8.44311 41.311 9.80207 41.311C10.2092 41.311 10.6517 41.4177 10.9286 41.5368L10.3905 44.2013C10.2446 44.8811 10.0485 45.3541 9.67763 45.6403C9.32903 45.9206 8.85681 46 8.45052 46C8.02116 46 7.62147 45.9065 7.39648 45.7734L7.5712 45.3401ZM10.2677 41.8634C10.1581 41.8171 9.94052 41.7567 9.68587 41.7567C8.80654 41.7567 8.20329 42.5961 8.1967 43.3958C8.1967 43.7481 8.33432 44.1674 8.87247 44.1674C9.38837 44.1674 9.91168 43.5687 10.0427 42.936L10.2677 41.8634Z" fill="#154555"/>
<path d="M14.938 41.3846L14.4657 43.6687C14.3932 44.0285 14.3413 44.3419 14.3059 44.6082H13.7611L13.8551 44.002H13.8402C13.5279 44.4213 13.0623 44.681 12.5975 44.681C12.1467 44.681 11.6753 44.4817 11.6753 43.7481C11.6753 43.5951 11.6967 43.4215 11.7404 43.2081L12.1178 41.3838H12.7211L12.3511 43.1825C12.3074 43.3619 12.2851 43.5149 12.2851 43.6555C12.2851 43.988 12.4384 44.2154 12.8521 44.2154C13.2881 44.2154 13.8485 43.749 13.9927 43.0361L14.3347 41.3846H14.938Z" fill="#154555"/>
<path d="M15.4958 44.6082L15.9244 42.53C16.0117 42.1107 16.0703 41.684 16.1057 41.3846H16.6364C16.6076 41.6104 16.5779 41.8378 16.5417 42.0843H16.5639C16.7889 41.6443 17.1672 41.3119 17.6385 41.3119C17.6896 41.3119 17.763 41.3185 17.8067 41.3251L17.6905 41.8717C17.6534 41.8651 17.5965 41.8577 17.5306 41.8577C17.0073 41.8577 16.5425 42.4374 16.39 43.1899L16.0999 44.609L15.4958 44.6082Z" fill="#154555"/>
<path d="M17.9731 44.6082L18.6489 41.3846H19.2522L18.5764 44.6082H17.9731ZM18.7577 40.4857C18.7577 40.2723 18.939 40.1127 19.1574 40.1127C19.375 40.1127 19.5126 40.2591 19.5126 40.4592C19.506 40.6792 19.3387 40.8322 19.1055 40.8322C18.8953 40.8314 18.7577 40.685 18.7577 40.4857Z" fill="#154555"/>
<path d="M23.5448 39.8795L22.7751 43.5885C22.7026 43.9218 22.6441 44.2948 22.6218 44.6082H22.0697L22.1636 43.9689H22.1488C21.829 44.4287 21.3857 44.6818 20.8846 44.6818C20.2014 44.6818 19.8306 44.1691 19.8306 43.51C19.8306 42.3646 20.761 41.3127 22.0029 41.3127C22.2279 41.3127 22.476 41.359 22.6284 41.426L22.9408 39.8803L23.5448 39.8795ZM22.5353 41.8907C22.4109 41.818 22.2081 41.7576 21.9535 41.7576C21.1104 41.7576 20.4561 42.5763 20.4561 43.4364C20.4561 43.8234 20.6019 44.2286 21.117 44.2286C21.5818 44.2286 22.1422 43.7423 22.2947 43.0171L22.5353 41.8907Z" fill="#154555"/>
<path d="M26.1162 44.6082C26.1162 44.4147 26.1525 44.1087 26.1962 43.7754H26.1813C25.7965 44.4411 25.3168 44.681 24.815 44.681C24.1977 44.681 23.8054 44.2278 23.8054 43.615C23.8054 42.4961 24.7062 41.311 26.239 41.311C26.5736 41.311 26.9436 41.3639 27.1835 41.4375L26.8283 43.1163C26.7121 43.6762 26.6601 44.2493 26.675 44.6082H26.1162ZM26.5085 41.7973C26.4212 41.7766 26.2909 41.7501 26.0874 41.7501C25.1792 41.7501 24.4375 42.6226 24.4309 43.5157C24.4309 43.8755 24.5685 44.2286 25.0342 44.2286C25.5352 44.2286 26.1311 43.6299 26.3058 42.7698L26.5085 41.7973Z" fill="#154555"/>
<path d="M31.4835 39.8795L30.7138 43.5885C30.6412 43.9218 30.5827 44.2948 30.5605 44.6082H30.0091L30.1031 43.9689H30.0882C29.7685 44.4287 29.3251 44.6818 28.8241 44.6818C28.1409 44.6818 27.77 44.1691 27.77 43.51C27.77 42.3646 28.7004 41.3127 29.9424 41.3127C30.1674 41.3127 30.4154 41.359 30.5679 41.426L30.8802 39.8803L31.4835 39.8795ZM30.4739 41.8907C30.3495 41.818 30.1468 41.7576 29.8921 41.7576C29.049 41.7576 28.3947 42.5763 28.3947 43.4364C28.3947 43.8234 28.5406 44.2286 29.0556 44.2286C29.5204 44.2286 30.0808 43.7423 30.2333 43.0171L30.4739 41.8907Z" fill="#154555"/>
<path d="M36.0532 42.4961H34.2723L33.9385 44.1351H35.9444L35.8422 44.6082H33.2339L34.1643 40.1185H36.6638L36.5617 40.5924H34.672L34.3736 42.0313H36.1545L36.0532 42.4961Z" fill="#154555"/>
<path d="M36.8 44.6082L37.7807 39.8795H38.3848L37.3967 44.6082H36.8Z" fill="#154555"/>
<path d="M41.1587 44.4213C40.8966 44.561 40.4681 44.6752 39.9959 44.6752C39.0655 44.6752 38.6592 44.0955 38.6592 43.3826C38.6592 42.4101 39.4437 41.311 40.5777 41.311C41.2461 41.311 41.6095 41.6774 41.6095 42.1372C41.6095 42.9832 40.5695 43.2089 39.2698 43.1891C39.241 43.3288 39.2624 43.629 39.3424 43.8019C39.48 44.0888 39.7635 44.2352 40.1269 44.2352C40.5406 44.2352 40.853 44.1153 41.0714 44.0086L41.1587 44.4213ZM40.4904 41.7443C39.9168 41.7443 39.4874 42.2562 39.3424 42.7624C40.286 42.769 41.0277 42.6557 41.0277 42.1562C41.0277 41.8907 40.8093 41.7443 40.4904 41.7443Z" fill="#154555"/>
<path d="M44.4997 44.4817C44.3184 44.5619 43.955 44.6752 43.4819 44.6752C42.5737 44.6752 42.1304 44.1145 42.1304 43.4289C42.1304 42.3307 43.0171 41.3185 44.2805 41.3185C44.6077 41.3185 44.906 41.4045 45.0148 41.4574L44.8409 41.8973C44.7024 41.837 44.5063 41.7774 44.245 41.7774C43.3295 41.7774 42.7559 42.6036 42.7559 43.3627C42.7559 43.8821 43.0534 44.2212 43.6278 44.2212C43.983 44.2212 44.2599 44.1211 44.4412 44.0417L44.4997 44.4817Z" fill="#154555"/>
<path d="M46.9399 40.5188L46.7586 41.3838H47.6016L47.5069 41.8171H46.6638L46.3366 43.3818C46.3004 43.5612 46.2715 43.7283 46.2715 43.9011C46.2715 44.0946 46.3737 44.2079 46.6053 44.2079C46.7075 44.2079 46.8088 44.2013 46.8888 44.1881L46.8599 44.6214C46.7511 44.6611 46.5698 44.681 46.3951 44.681C45.857 44.681 45.6542 44.3808 45.6542 44.0549C45.6542 43.868 45.6757 43.682 45.7268 43.4488L46.0754 41.8171H45.5669L45.6608 41.3838H46.1627L46.3152 40.6577L46.9399 40.5188Z" fill="#154555"/>
<path d="M47.8044 44.6082L48.233 42.53C48.3203 42.1107 48.3789 41.684 48.4143 41.3846H48.945C48.9162 41.6104 48.8865 41.8378 48.8502 42.0843H48.8725C49.0975 41.6443 49.4757 41.3119 49.9471 41.3119C49.9982 41.3119 50.0716 41.3185 50.1153 41.3251L49.9991 41.8717C49.962 41.8651 49.9051 41.8577 49.8392 41.8577C49.3159 41.8577 48.8511 42.4374 48.6986 43.1899L48.4085 44.609L47.8044 44.6082Z" fill="#154555"/>
<path d="M53.6077 42.6565C53.6077 43.6489 52.838 44.681 51.6611 44.681C50.7818 44.681 50.2874 44.0822 50.2874 43.3561C50.2874 42.2976 51.0942 41.3118 52.2347 41.3118C53.1866 41.311 53.6077 41.9701 53.6077 42.6565ZM50.9129 43.3363C50.9129 43.8623 51.2244 44.2418 51.7411 44.2418C52.4531 44.2418 52.9904 43.4025 52.9904 42.6499C52.9904 42.2769 52.8017 41.7501 52.1688 41.7501C51.4139 41.7501 50.9054 42.597 50.9129 43.3363ZM53.4198 40.0391L52.4531 40.991H51.9809L52.6929 40.0391H53.4198Z" fill="#154555"/>
<path d="M54.1953 44.6082L54.6675 42.3241C54.7475 41.9643 54.7911 41.6509 54.8348 41.3846H55.373L55.2856 42.0173H55.3004C55.6128 41.5641 56.085 41.3119 56.6017 41.3119C57.0228 41.3119 57.4951 41.5318 57.4951 42.2108C57.4951 42.3505 57.467 42.5573 57.43 42.7301L57.0377 44.609H56.4344L56.8193 42.7508C56.8481 42.6234 56.8704 42.4705 56.8704 42.3373C56.8704 42.0115 56.7328 41.7708 56.3182 41.7708C55.8889 41.7708 55.279 42.2447 55.1191 43.0436L54.7994 44.6082H54.1953Z" fill="#154555"/>
<path d="M58.2417 44.6082L58.9175 41.3846H59.5207L58.845 44.6082H58.2417ZM59.0263 40.4857C59.0263 40.2723 59.2076 40.1127 59.426 40.1127C59.6435 40.1127 59.7811 40.2591 59.7811 40.4592C59.7746 40.6792 59.6073 40.8322 59.374 40.8322C59.1639 40.8314 59.0263 40.685 59.0263 40.4857Z" fill="#154555"/>
<path d="M62.4916 44.4817C62.3103 44.5619 61.9469 44.6752 61.4739 44.6752C60.5657 44.6752 60.1223 44.1145 60.1223 43.4289C60.1223 42.3307 61.0091 41.3185 62.2724 41.3185C62.5996 41.3185 62.8979 41.4045 63.0067 41.4574L62.8328 41.8973C62.6944 41.837 62.4982 41.7774 62.237 41.7774C61.3214 41.7774 60.7478 42.6036 60.7478 43.3627C60.7478 43.8821 61.0453 44.2212 61.6197 44.2212C61.9749 44.2212 62.2518 44.1211 62.4331 44.0417L62.4916 44.4817Z" fill="#154555"/>
<path d="M65.5352 44.6082C65.5352 44.4147 65.5714 44.1087 65.6151 43.7754H65.6003C65.2154 44.4411 64.7358 44.681 64.2339 44.681C63.6166 44.681 63.2244 44.2278 63.2244 43.615C63.2244 42.4961 64.1251 41.311 65.658 41.311C65.9926 41.311 66.3626 41.3639 66.6024 41.4375L66.2472 43.1163C66.131 43.6762 66.0791 44.2493 66.0939 44.6082H65.5352ZM65.9275 41.7973C65.8401 41.7766 65.7099 41.7501 65.5063 41.7501C64.5982 41.7501 63.8565 42.6226 63.8499 43.5157C63.8499 43.8755 63.9875 44.2286 64.4531 44.2286C64.9542 44.2286 65.55 43.6299 65.7247 42.7698L65.9275 41.7973Z" fill="#154555"/>
<defs>
<linearGradient id="paint0_linear_10_1344" x1="4.07672" y1="35.8697" x2="4.07672" y2="7.05637" gradientUnits="userSpaceOnUse">
<stop stop-color="#07213F"/>
<stop offset="1" stop-color="#11375B"/>
</linearGradient>
<linearGradient id="paint1_linear_10_1344" x1="3.91711" y1="35.8697" x2="3.91711" y2="7.05637" gradientUnits="userSpaceOnUse">
<stop stop-color="#07213F"/>
<stop offset="1" stop-color="#11375B"/>
</linearGradient>
<linearGradient id="paint2_linear_10_1344" x1="37.0887" y1="35.8697" x2="37.0887" y2="7.05636" gradientUnits="userSpaceOnUse">
<stop stop-color="#07213F"/>
<stop offset="1" stop-color="#11375B"/>
</linearGradient>
<linearGradient id="paint3_linear_10_1344" x1="57.1582" y1="35.8697" x2="57.1582" y2="7.05638" gradientUnits="userSpaceOnUse">
<stop stop-color="#07213F"/>
<stop offset="1" stop-color="#11375B"/>
</linearGradient>
<linearGradient id="paint4_linear_10_1344" x1="76.9408" y1="41.7067" x2="93.3354" y2="0.305337" gradientUnits="userSpaceOnUse">
<stop stop-color="#154555"/>
<stop offset="1" stop-color="#9BACB4"/>
</linearGradient>
<linearGradient id="paint5_linear_10_1344" x1="17.482" y1="35.8697" x2="17.482" y2="7.05637" gradientUnits="userSpaceOnUse">
<stop stop-color="#07213F"/>
<stop offset="1" stop-color="#11375B"/>
</linearGradient>
</defs>
</svg>
